# xmcd
#
# Track frame offsets:
#	150
#	11847
#	23377
#	34350
#	47222
#	59500
#	70657
#	81260
#	92125
#	105050
#	116435
#	129632
#	139710
#	159300
#	170822
#	183485
#	202405
#	218350
#	233192
#	244885
#	261197
#	272947
#	282300
#	292000
#	305395
#	317942
#	338102
#
# Disc length: 4730 seconds
#
# Revision: 1
# Processed by: cddbd v1.5.1PL0 Copyright (c) Steve Scherf et al.
# Submitted via: CDex 1.50Beta5
#
DISCID=9512781b
DTITLE=ささきいさお - 新造人間キャシャーン〜アニメーション・ヒーロー・エバーグリーンシリーズ
DYEAR=1992
DGENRE=
TTITLE0=ささきいさお/たたかえ!キャシャーン
TTITLE1=ささきいさお/キャシャーンアクション
TTITLE2=コロムビアゆりかご会/われらのキャシャーン
TTITLE3=嶋崎由理/戦え少女ルナ
TTITLE4=ささきいさお/ゴーゴーキャシャーン
TTITLE5=ささきいさお/キャシャーンマーチ
TTITLE6=コロムビアゆりかご会/キャシャーン危機一髪
TTITLE7=ささきいさお/ぼくらのフレンダー
TTITLE8=ささきいさお/スワニーよ
TTITLE9=コロムビアゆりかご会/キャシャーン賛歌
TTITLE10=ささきいさお/さすらいのキャシャーン
TTITLE11=ささきいさお/おれは新造人間
TTITLE12=コロムビア・オーケストラ/悪魔を呼ぶ稲妻
TTITLE13=コロムビア・オーケストラ/引き裂かれた母と子
TTITLE14=コロムビア・オーケストラ/ブライキングボスの野望
TTITLE15=コロムビア・オーケストラ/平和への祈り
TTITLE16=コロムビア・オーケストラ/無敵の新造人間
TTITLE17=コロムビア・オーケストラ/この想いに命賭けて
TTITLE18=コロムビア・オーケストラ/戦うために…・
TTITLE19=コロムビア・オーケストラ/キャシャーン抹殺計画
TTITLE20=コロムビア・オーケストラ/襲いくる刺客
TTITLE21=コロムビア・オーケストラ/戦火に身を踊らせ
TTITLE22=コロムビア・オーケストラ/明日を信じて
TTITLE23=コロムビア・オーケストラ/ヤルッツェブラッキン
TTITLE24=コロムビア・オーケストラ/キャシャーンの苦悩
TTITLE25=コロムビア・オーケストラ/たとえ我身は滅びても
TTITLE26=コロムビア・オーケストラ/讃えよ,偉大なる人間を
EXTD=
EXTT0=
EXTT1=
EXTT2=
EXTT3=
EXTT4=
EXTT5=
EXTT6=
EXTT7=
EXTT8=
EXTT9=
EXTT10=
EXTT11=
EXTT12=
EXTT13=
EXTT14=
EXTT15=
EXTT16=
EXTT17=
EXTT18=
EXTT19=
EXTT20=
EXTT21=
EXTT22=
EXTT23=
EXTT24=
EXTT25=
EXTT26=
PLAYORDER=
